<svg width="1024" height="1024" viewBox="0 0 1024 1024" fill="none" xmlns="http://www.w3.org/2000/svg">
<rect width="1024" height="1024" rx="500" fill="white"/>
<path d="M156.106 832L205.071 668.592H433.579L482.545 832H156.106ZM547.833 832L596.798 668.592H825.306L874.272 832H547.833ZM319.325 603.229L368.291 439.821H596.798L645.764 603.229H319.325ZM874.272 310.729L748.266 346.352L712.684 472.503L677.102 346.352L551.097 310.729L677.102 275.106L712.684 148.955L748.266 275.106L874.272 310.729Z" fill="black" fill-opacity="0.15"/>
<path d="M148.839 815.045L197.805 651.637H426.312L475.278 815.045H148.839ZM540.566 815.045L589.532 651.637H818.039L867.005 815.045H540.566ZM312.059 586.274L361.025 422.866H589.532L638.498 586.274H312.059ZM867.005 293.774L741 329.397L705.418 455.548L669.836 329.397L543.83 293.774L669.836 258.151L705.418 132L741 258.151L867.005 293.774Z" fill="url(#paint0_linear_10_2)"/>
<defs>
<linearGradient id="paint0_linear_10_2" x1="-44.1266" y1="1049.59" x2="725.075" y2="169.262" gradientUnits="userSpaceOnUse">
<stop stop-color="#DC9C16"/>
<stop offset="1" stop-color="#FFFE3C"/>
</linearGradient>
</defs>
</svg>
